Coordinates
version=1
nRows=26
nColumns=24
inDegrees=yes

Units are S.I. units (second, meters, Newtons, ...)
Angles are in degrees.

endheader
time	pelvis_tilt	pelvis_list	pelvis_rotation	pelvis_tx	pelvis_ty	pelvis_tz	hip_flexion_r	hip_adduction_r	hip_rotation_r	knee_angle_r	ankle_angle_r	subtalar_angle_r	mtp_angle_r	hip_flexion_l	hip_adduction_l	hip_rotation_l	knee_angle_l	ankle_angle_l	subtalar_angle_l	mtp_angle_l	lumbar_extension	lumbar_bending	lumbar_rotation
      7.65000000	      7.14708530	      0.44574138	      6.55089602	      1.16519383	      0.92193979	     -0.21095806	     10.85743280	      2.27439057	     -7.11539263	      3.27087344	      6.18421159	      0.85768288	      0.00000000	    -17.55440384	      3.53612802	      6.73776352	    -11.43969389	     17.18549987	     -5.14666994	      0.00000000	    -26.23832548	      2.25195889	     -6.28436073
      7.66000000	      7.36687779	      0.35050726	      6.58920176	      1.17657785	      0.92143018	     -0.21010686	     10.57378715	      2.44775326	     -6.94491717	      2.51721929	      5.33062490	      0.37616553	      0.00000000	    -18.08812574	      3.26235015	      6.59913706	    -12.29123744	     17.08642334	     -4.83326565	      0.00000000	    -26.22695790	      2.40141776	     -6.33318794
      7.67000000	      7.51191627	      0.21375299	      6.57808267	      1.18807602	      0.92102967	     -0.20913513	     10.37602107	      2.66915295	     -6.41412159	      1.60277222	      3.89181063	     -0.75247602	      0.00000000	    -18.42087467	      2.95162422	      6.21964097	    -13.34412456	     16.86445108	     -4.33332434	      0.00000000	    -26.10110210	      2.56283787	     -6.34538220
      7.68000000	      7.70257128	     -0.00163954	      6.57200295	      1.19965788	      0.92095776	     -0.20815937	     10.13073254	      2.99183213	     -5.95154201	      0.61508758	      2.11408894	     -1.96033221	      0.00000000	    -18.68714972	      2.55630906	      5.86381405	    -14.58987275	     16.46794256	     -3.85807677	      0.00000000	    -26.01551049	      2.83497722	     -6.33930184
      7.69000000	      7.89665823	     -0.27644877	      6.53726482	      1.21126854	      0.92118731	     -0.20713435	      9.89061864	      3.39456680	     -5.44369056	     -0.42017511	      0.16675107	     -3.24228094	      0.00000000	    -18.81023432	      2.10172025	      5.36048967	    -16.06641988	     15.89832706	     -3.30773140	      0.00000000	    -25.93150542	      3.16919548	     -6.28375963
      7.70000000	      8.11738129	     -0.60480047	      6.47800022	      1.22288698	      0.92176748	     -0.20608843	      9.63403047	      3.87000112	     -5.00888036	     -1.48979768	     -1.61235394	     -4.34895437	      0.00000000	    -18.80422932	      1.58455815	      4.67827995	    -17.78127534	     15.10772419	     -2.64784440	      0.00000000	    -25.88099350	      3.57427971	     -6.21617080
      7.71000000	      8.34545172	     -0.95606088	      6.35487263	      1.23443863	      0.92265505	     -0.20497207	      9.39491015	      4.38381581	     -4.60735205	     -2.61929105	     -2.98137021	     -5.19082764	      0.00000000	    -18.64094158	      1.04651604	      3.78346984	    -19.73186979	     14.04148547	     -1.98739563	      0.00000000	    -25.86238820	      3.99191450	     -6.09467551
      7.72000000	      8.58388754	     -1.29737978	      6.16571263	      1.24587149	      0.92381791	     -0.20376898	      9.17068516	      4.89717375	     -4.30884040	     -3.82246433	     -3.72162617	     -5.68396000	      0.00000000	    -18.32304595	      0.51294580	      2.69266266	    -21.90217892	     12.63335785	     -1.42350596	      0.00000000	    -25.89374036	      4.37586713	     -5.94671493
      7.73000000	      8.82552264	     -1.60941588	      5.95357466	      1.25716495	      0.92520320	     -0.20252456	      8.93692009	      5.37966144	     -4.11712126	     -5.05366790	     -3.86033225	     -5.91771937	      0.00000000	    -17.84872474	     -0.01518595	      1.51089170	    -24.26337768	     10.81093773	     -0.98306893	      0.00000000	    -25.96127156	      4.71870374	     -5.79301130
      7.74000000	      9.05579327	     -1.87538591	      5.72530333	      1.26828286	      0.92671340	     -0.20121256	      8.67866958	      5.81333571	     -3.99284534	     -6.25664245	     -3.49467890	     -5.99336469	      0.00000000	    -17.19380333	     -0.53888758	      0.23279632	    -26.81556269	      8.63577250	     -0.68226448	      0.00000000	    -26.04801655	      4.99405960	     -5.65518513
      7.75000000	      9.22447057	     -2.09512131	      5.47490113	      1.27918313	      0.92822568	     -0.19980360	      8.45900654	      6.18764824	     -4.02162908	     -7.43744255	     -2.64539835	     -5.75444387	      0.00000000	    -16.32666383	     -1.03955486	     -1.00916263	    -29.50754218	      6.08316351	     -0.67516076	      0.00000000	    -26.10538743	      5.18163165	     -5.53076675
      7.76000000	      9.39266285	     -2.25927209	      5.22582706	      1.28986653	      0.92977152	     -0.19834024	      8.15937492	      6.49875161	     -4.14777737	     -8.48800190	     -1.60331995	     -5.37047749	      0.00000000	    -15.34623830	     -1.50717841	     -2.13411702	    -32.26673720	      3.13079812	     -1.15326524	      0.00000000	    -26.20603455	      5.28088683	     -5.42586742
      7.77000000	      9.53370366	     -2.38673946	      5.00016009	      1.30033340	      0.93126972	     -0.19685142	      7.79080385	      6.76791716	     -4.28623919	     -9.36350706	     -0.49736859	     -4.94405554	      0.00000000	    -14.23161078	     -1.95983572	     -3.09794545	    -35.07968953	     -0.04341143	     -1.96642676	      0.00000000	    -26.31021672	      5.32102257	     -5.33621191
      7.78000000	      9.64638683	     -2.48713482	      4.80428930	      1.31058128	      0.93268756	     -0.19537695	      7.35389900	      7.00587439	     -4.42048524	    -10.05155618	      0.59086998	     -4.50695961	      0.00000000	    -13.00342102	     -2.38778554	     -3.85462721	    -37.90880370	     -3.28370557	     -3.10662732	      0.00000000	    -26.41741951	      5.31648034	     -5.25275480
      7.79000000	      9.73999398	     -2.57178630	      4.66058906	      1.32062119	      0.93402451	     -0.19398302	      6.84392813	      7.22255891	     -4.55939732	    -10.55329240	      1.61521022	     -4.07715666	      0.00000000	    -11.68772911	     -2.79243294	     -4.38345437	    -40.72576947	     -6.37895620	     -4.48771372	      0.00000000	    -26.53500744	      5.29230205	     -5.18560531
      7.80000000	      9.81625231	     -2.65306533	      4.56592916	      1.33046985	      0.93527519	     -0.19269343	      6.26491342	      7.43417593	     -4.67615291	    -10.87352268	      2.53749763	     -3.69450111	      0.00000000	    -10.30367035	     -3.17435859	     -4.71035183	    -43.49877806	     -9.07708151	     -6.00825797	      0.00000000	    -26.65992381	      5.27247537	     -5.11579979
      7.81000000	      9.90523355	     -2.74817564	      4.52638503	      1.34014259	      0.93648493	     -0.19155617	      5.60791827	      7.65072049	     -4.87081148	    -11.05090592	      3.43888975	     -3.18943933	      0.00000000	     -8.90117728	     -3.54423350	     -4.86424717	    -46.18639136	    -11.16149833	     -7.61394710	      0.00000000	    -26.82835610	      5.28855271	     -5.07613942
      7.82000000	      9.93570955	     -2.83762438	      4.52736169	      1.34965471	      0.93757130	     -0.19054340	      4.94800509	      7.86593071	     -4.93392867	    -11.08321972	      4.12801887	     -3.02160395	      0.00000000	     -7.41250006	     -3.86357768	     -4.86492889	    -48.75694648	    -12.52439778	     -9.22378770	      0.00000000	    -26.94181024	      5.30334983	     -4.97667014
      7.83000000	     10.00101692	     -2.91689882	      4.55292272	      1.35902297	      0.93869173	     -0.18969889	      4.21080465	      8.05666345	     -5.07835586	    -11.02806481	      4.86440895	     -2.58983341	      0.00000000	     -5.97804629	     -4.11900814	     -4.76838383	    -51.11820857	    -13.12618045	    -10.95634260	      0.00000000	    -27.11837310	      5.33542715	     -4.91204510
      7.84000000	     10.00534940	     -2.99214455	      4.58227328	      1.36824861	      0.93970809	     -0.18893043	      3.51304924	      8.23982181	     -5.16515590	    -10.90170221	      5.44389148	     -2.39675726	      0.00000000	     -4.48550169	     -4.33001640	     -4.64376343	    -53.26515019	    -13.00922467	    -12.69982287	      0.00000000	    -27.23332213	      5.35934720	     -4.81668316
      7.85000000	     10.00363845	     -3.04782817	      4.59096031	      1.37736317	      0.94073584	     -0.18823512	      2.79676345	      8.39253382	     -5.25176969	    -10.71958196	      6.01126767	     -2.09148782	      0.00000000	     -3.03058961	     -4.46628625	     -4.50350180	    -55.11706404	    -12.38155679	    -14.51015212	      0.00000000	    -27.34599139	      5.36141997	     -4.68503015
      7.86000000	      9.99174570	     -3.07125996	      4.57116572	      1.38637293	      0.94176967	     -0.18760067	      2.07799241	      8.49683308	     -5.36851514	    -10.50654922	      6.62959896	     -1.66133651	      0.00000000	     -1.61578293	     -4.51854008	     -4.36600548	    -56.65105896	    -11.40278367	    -16.28881276	      0.00000000	    -27.44973527	      5.32620662	     -4.51507529
      7.87000000	      9.91247697	     -3.07836152	      4.49609558	      1.39527570	      0.94271978	     -0.18694529	      1.42309424	      8.57922877	     -5.35967735	    -10.26736101	      7.06351184	     -1.39106002	      0.00000000	     -0.17488748	     -4.51504397	     -4.26982137	    -57.88263552	    -10.16874194	    -17.88295511	      0.00000000	    -27.47182808	      5.24377590	     -4.28419497
      7.88000000	      9.84494252	     -3.06248110	      4.38348658	      1.40410903	      0.94368192	     -0.18630690	      0.73779288	      8.63375330	     -5.27897981	     -9.99417896	      7.55162168	     -1.13350822	      0.00000000	      1.19215291	     -4.45460968	     -4.19132137	    -58.79225974	     -8.87028029	    -19.20430897	      0.00000000	    -27.50123025	      5.12918204	     -3.99898639
      7.89000000	      9.71504773	     -2.98342274	      4.24484372	      1.41283459	      0.94457310	     -0.18571326	      0.16195202	      8.58413147	     -5.42062006	     -9.79401331	      8.07356719	     -0.56931349	      0.00000000	      2.56985503	     -4.27723663	     -4.09333826	    -59.39283364	     -7.57506393	    -20.20882377	      0.00000000	    -27.45866870	      4.92324013	     -3.72184223
      7.90000000	      9.59182564	     -2.90118663	      4.02763051	      1.42154425	      0.94543057	     -0.18504698	     -0.46065669	      8.54775571	     -5.23723543	     -9.52712231	      8.51238139	     -0.32366792	      0.00000000	      3.85992904	     -4.08612970	     -4.06682013	    -59.68748588	     -6.33207914	    -20.80949462	      0.00000000	    -27.41007753	      4.68560569	     -3.34817792
